<?xml version="1.0" encoding="iso-8859-1"?>
<!-- Generator: Adobe Illustrator 19.0.0, SVG Export Plug-In . SVG Version: 6.00 Build 0)  -->
<svg xmlns="http://www.w3.org/2000/svg" xmlns:xlink="http://www.w3.org/1999/xlink" version="1.1" id="Layer_1" x="0px" y="0px" viewBox="0 0 512 512" style="enable-background:new 0 0 512 512;" xml:space="preserve" width="512" height="512">
<path d="M511.989,30V0h-421v30h51.247c-3.107,9.54-4.754,19.638-4.854,30H90.989v30h50.612c2.714,8.992,6.703,17.515,11.907,25.321  c13.409,20.114,14.709,45.533,3.91,66.679H69.843L0.011,250.765l21.049,21.376l43.122-42.462L92.414,512h297.15l28.201-282.011  l37.617,37.617l21.213-21.213L412.202,182H309.83c9.107-27.603,5.328-58.288-11.361-83.32c-1.845-2.768-3.459-5.672-4.844-8.68  h218.364V60H287.394c0.145-10.384,2.54-20.733,7.198-30H511.989z M178.469,98.68c-13.358-20.037-14.647-47.253-3.877-68.68h27.644  c-3.207,9.848-4.872,20.287-4.872,31c0,19.694,5.583,38.478,16.145,54.32c13.409,20.114,14.709,45.533,3.91,66.679H189.83  C198.937,154.397,195.158,123.712,178.469,98.68z M270.989,332v150h-60V332H270.989z M173.489,302l-67.5-90h270l-67.5,90H173.489z   M96.268,249.039L158.489,332h22.5v150h-61.425L96.268,249.039z M300.989,482V332h22.5l62.221-82.961L362.414,482H300.989z   M273.508,115.321c13.409,20.114,14.709,45.533,3.91,66.679H249.83c9.107-27.603,5.328-58.288-11.361-83.32  c-13.358-20.037-14.647-47.253-3.877-68.68h27.644c-3.207,9.848-4.872,20.287-4.872,31  C257.364,80.694,262.947,99.478,273.508,115.321z"/>















</svg>
