<?xml version="1.0"?>
<svg xmlns="http://www.w3.org/2000/svg" xmlns:xlink="http://www.w3.org/1999/xlink" version="1.1" id="Capa_1" x="0px" y="0px" viewBox="0 0 512 512" style="enable-background:new 0 0 512 512;" xml:space="preserve" width="512px" height="512px"><g><g>
	<g>
		<g>
			<rect x="224.48" width="32" height="32" data-original="#000000" class="active-path" data-old_color="#000000" fill="#A2CFB8"/>
			<rect x="160.48" width="32" height="32" data-original="#000000" class="active-path" data-old_color="#000000" fill="#A2CFB8"/>
			<path d="M432,0H288.464v32H432c26.51,0,48,21.49,48,48v352c0,26.51-21.49,48-48,48H80c-26.51,0-48-21.49-48-48V80     c0-26.51,21.49-48,48-48h48.464V0H80C35.839,0.053,0.053,35.839,0,80v352c0.053,44.161,35.839,79.947,80,80h352     c44.161-0.053,79.947-35.839,80-80V80C511.947,35.839,476.161,0.053,432,0z" data-original="#000000" class="active-path" data-old_color="#000000" fill="#A2CFB8"/>
			<polygon points="107.312,276.688 84.688,299.312 176,390.624 427.312,139.312 404.688,116.688 176,345.376    " data-original="#000000" class="active-path" data-old_color="#000000" fill="#A2CFB8"/>
		</g>
	</g>
</g></g> </svg>
