<?xml version="1.0"?>
<svg xmlns="http://www.w3.org/2000/svg" id="Layer_1" enable-background="new 0 0 512 512" height="512px" viewBox="0 0 512 512" width="512px"><g><g><g><path d="m436 330.999v-130.001h46c16.542 0 30-13.458 30-30s-13.458-29.999-30-29.999h-27.72c1.11-3.13 1.72-6.494 1.72-10 0-13.263-8.655-24.536-20.611-28.487-4.137-29.078-29.186-51.513-59.389-51.513h-50v-10.002c0-16.542-13.458-29.999-30-29.999h-80c-16.542 0-30 13.457-30 29.999v10.002h-50c-30.202 0-55.252 22.435-59.388 51.513-11.957 3.951-20.612 15.224-20.612 28.487 0 3.506.61 6.87 1.72 10h-27.72c-16.542 0-30 13.458-30 30s13.458 29.999 30 29.999h46v130.001c0 27.45 22.236 49.796 49.641 49.991l-34.648 60.012h-40.994c-16.542 0-30 13.458-30 30s13.458 30 30 30h412.001c16.542 0 30-13.458 30-30s-13.458-30-30-30h-40.993l-34.648-60.012c27.405-.195 49.641-22.541 49.641-49.991zm-104.493 74.984 20.218 35.019h-65.725c0-.001 0-.002 0-.004v-49.999c0-3.506-.61-6.87-1.72-10h44.95c-.256.73-.494 1.47-.697 2.227-2.077 7.755-1.022 15.837 2.974 22.757zm-148.041-22.757c-.203-.756-.441-1.496-.697-2.227h44.951c-1.11 3.13-1.72 6.494-1.72 10v49.999.004h-65.725l20.218-35.019c3.995-6.92 5.051-15.002 2.973-22.757zm62.534 57.772v-49.999c0-5.514 4.486-10 10-10s10 4.486 10 10v49.999.004h-20c0-.002 0-.002 0-.004zm246-269.999c0 5.514-4.486 9.999-10 9.999h-46v-19.999h46c5.514 0 10 4.486 10 10zm-286-130.002c0-5.514 4.486-9.999 10-9.999h80c5.514 0 10 4.485 10 9.999v10.002h-100zm-70 30.002h240c18.604 0 34.282 12.767 38.734 30h-317.468c4.452-17.233 20.13-30 38.734-30zm-60 60c0-5.514 4.486-10 10-10h340c5.514 0 10 4.486 10 10s-4.486 10-10 10h-340c-5.514 0-10-4.486-10-10zm-56 39.999c0-5.514 4.486-9.999 10-9.999h46v19.999h-46c-5.514 0-10-4.486-10-10zm76 160.001v-130.001h34.996c5.523 0 10-4.478 10-10s-4.477-10-10-10h-34.996v-19.999h320v170c0 16.542-13.458 30-30 30h-27.939c-.325-.007-.65-.003-.974 0h-202.108c-.35-.004-.701-.008-1.052 0h-27.927c-16.542 0-30-13.458-30-30zm49.852 54.984c1.823-3.158 5.122-4.933 8.528-4.984h.528c1.571.06 3.151.485 4.605 1.324 2.294 1.324 3.94 3.483 4.636 6.078.695 2.596.349 5.288-.976 7.582l-25.991 45.019h-23.094zm326.148 85.019c0 5.514-4.486 10-10 10h-412.001c-5.514 0-10-4.486-10-10s4.486-10 10-10h412.001c5.514 0 10 4.486 10 10zm-97.181-30-25.992-45.019c-1.324-2.294-1.67-4.986-.975-7.581.695-2.596 2.342-4.755 4.636-6.079 2.293-1.325 4.988-1.671 7.583-.976s4.753 2.342 6.078 4.636l31.765 55.019z" data-original="#000000" class="active-path" data-old_color="#000000" fill="#a2cfb8"/><path d="m175.992 200.998h.008c5.523 0 9.997-4.478 9.997-10s-4.481-10-10.004-10-10 4.478-10 10 4.476 10 9.999 10z" data-original="#000000" class="active-path" data-old_color="#000000" fill="#4DC0B5"/></g></g></g> </svg>
