<?xml version="1.0"?>
<svg xmlns="http://www.w3.org/2000/svg" id="outline" viewBox="0 0 512 512" width="512px" height="512px"><g><path d="M152,248a8.00039,8.00039,0,0,0-8-8h-8a40.06838,40.06838,0,0,0-32-39.19507V192a8,8,0,0,0-16,0v8.80493A40.06838,40.06838,0,0,0,56,240H48a8.00039,8.00039,0,0,0-8,8,32.03667,32.03667,0,0,0,32,32h48A32.03667,32.03667,0,0,0,152,248ZM96,216a24.0275,24.0275,0,0,1,24,24H72A24.0275,24.0275,0,0,1,96,216ZM58.14746,256h75.70508A16.00861,16.00861,0,0,1,120,264H72A16.00861,16.00861,0,0,1,58.14746,256Z" data-original="#000000" class="active-path" data-old_color="#000000" fill="#A2CFB8"/><path d="M464,320V304a7.99866,7.99866,0,0,0-6.05957-7.76074l-29-7.25L406.94775,256H416a8.00026,8.00026,0,0,0,7.58984-5.46973l8-24a8.00033,8.00033,0,0,0-3.15234-9.18652l-24-16A8.00221,8.00221,0,0,0,400,200h-8V168a24.0275,24.0275,0,0,0-24-24H344a8.00039,8.00039,0,0,0-8,8v16a24.0275,24.0275,0,0,0,24,24h16v8h-8a7.961,7.961,0,0,0-4.50073,1.38721,24.82617,24.82617,0,0,0-9.39478-3.187L312,192.93774V161.59961A41.38106,41.38106,0,0,0,303.15454,136H320a8.00039,8.00039,0,0,0,8-8V96a56.0629,56.0629,0,0,0-56-56,40.04584,40.04584,0,0,0-40,40v24a8.00153,8.00153,0,0,0,3.88379,6.86035l19.73437,11.84058A41.48781,41.48781,0,0,0,232,145.59961l-25.23047,60.55371A87.55644,87.55644,0,0,0,200,240a39.79015,39.79015,0,0,0,8.022,24H176V160a8.00039,8.00039,0,0,0-8-8H24a8.00039,8.00039,0,0,0-8,8V304a8.00039,8.00039,0,0,0,8,8H64v8a8.00235,8.00235,0,0,0,2.34277,5.65723l12.96265,12.96264-5.96167,8.94263a8.00082,8.00082,0,0,0,.999,10.09473l4.90479,4.90478A56.00029,56.00029,0,1,0,141.95068,448H368a7.99912,7.99912,0,0,0,7.15527-4.42188l9.50147-19.00317A55.99791,55.99791,0,1,0,479.13867,376H488a8.00039,8.00039,0,0,0,8-8V352A32.03667,32.03667,0,0,0,464,320ZM352,168v-8h16a8.00917,8.00917,0,0,1,8,8v8H360A8.00917,8.00917,0,0,1,352,168Zm96,152H432V306.24609l16,4Zm-29.20654,62.10791,26.57861,26.57861a8.97,8.97,0,1,1-12.68555,12.68555l-26.57861-26.57861A40.30578,40.30578,0,0,1,418.79346,382.10791ZM376,216h21.57812l16.9004,11.2666L410.23438,240H376Zm-.38281,110.877-25.80835,51.61743-4.74585-4.74584,24.199-78.64649ZM131.31348,392,90.294,350.98047,116.28125,312H288v16a64.07207,64.07207,0,0,1-64,64Zm167.70141-36.21069-2.81885,18.323-5.36328,16.0896-13.67407-2.48608A80.27712,80.27712,0,0,0,299.01489,355.78931ZM299.69482,280h10.98L304,323.38623V296A31.792,31.792,0,0,0,299.69482,280ZM309.7666,384h22.91895l9.58032,9.58032-2.73755,5.47534-32.793-5.9624ZM360,223.00391A9.00568,9.00568,0,0,1,351.00391,232H336V212.06226l16.12012,2.01489A9.01034,9.01034,0,0,1,360,223.00391ZM308.6499,80A39.75689,39.75689,0,0,1,312,96v3.05566l-32-16V80ZM248,80a24.0275,24.0275,0,0,1,24-24,39.79137,39.79137,0,0,1,23.97192,8H272a8.00039,8.00039,0,0,0-8,8V88a8.00022,8.00022,0,0,0,4.42188,7.15527L312,116.94434V120H282.21582L248,99.4707Zm-1.23047,71.75391A25.5998,25.5998,0,0,1,296,161.59961v4.51221l-8.84473-17.68994-14.31054,7.15624,24,48a8.00212,8.00212,0,0,0,6.16308,4.36036L320,210.0625V232H295.37988a23.87964,23.87964,0,0,1-18.74023-9.00781L254.24707,195.002l-12.49414,9.9961L250.55493,216H220.12524c.43921-1.23926.905-2.47168,1.41382-3.69238ZM216,240a72.43909,72.43909,0,0,1,.45752-8h46.89819l.7898.9873A39.80132,39.80132,0,0,0,295.37988,248h45.08789A19.55383,19.55383,0,0,1,360,267.53223v3.26465L330.0918,368H313.3252l14.582-94.7832A8.00113,8.00113,0,0,0,320,264H240A24.0275,24.0275,0,0,1,216,240Zm56,40a16.01833,16.01833,0,0,1,16,16H176V280ZM32,168H160V296H32ZM80,316.68652V312H97.052l-8.69507,13.04272ZM96,456a39.9941,39.9941,0,0,1-3.17676-79.8623L108.68555,392H80a8.00039,8.00039,0,0,0-8,8v32a8.00039,8.00039,0,0,0,8,8h44.68555l1.82934,1.82935A40.14973,40.14973,0,0,1,96,456Zm-3.31445-48,16,16H88V408ZM200,432H139.31348l-24-24H200Zm163.05566,0H216V408h8a79.501,79.501,0,0,0,33.842-7.53394l84.7273,15.405a8.00725,8.00725,0,0,0,8.58593-4.293l40-80a8.00221,8.00221,0,0,0,.68946-5.14746L377.75879,256h9.96L416,298.42188v27.68945ZM480,416a40,40,0,1,1-79.74854-4.43408l21.12061,21.1206a24.97109,24.97109,0,0,0,35.31445-35.31445l-21.1206-21.12061A39.95814,39.95814,0,0,1,480,416Zm0-56H416.94434l12-24H464a16.01833,16.01833,0,0,1,16,16Z" data-original="#000000" class="active-path" data-old_color="#000000" fill="#A2CFB8"/></g> </svg>
