<?xml version="1.0"?>
<svg xmlns="http://www.w3.org/2000/svg" id="Layer_1_1_" enable-background="new 0 0 64 64" height="512px" viewBox="0 0 64 64" width="512px"><g><path d="m40 2h-4-1-16-1-4c-3.309 0-6 2.691-6 6v48c0 3.309 2.691 6 6 6h26c3.309 0 6-2.691 6-6v-23.586l9.879-9.879c.723-.723 1.121-1.684 1.121-2.706 0-2.112-1.718-3.829-3.828-3.829-1.023 0-1.984.398-2.707 1.122l-4.465 4.464v-13.586c0-3.309-2.691-6-6-6zm-4 2h4c2.206 0 4 1.794 4 4v15.586l-2 2v-16.586c0-1.654-1.346-3-3-3h-5.184c.112-.314.184-.648.184-1 0-.551.448-1 1-1zm-10 44h4c.266 0 .52-.105.707-.293l9.293-9.293v16.586c0 .551-.448 1-1 1h-24c-.552 0-1-.449-1-1v-46c0-.551.448-1 1-1h8 8 8c.552 0 1 .449 1 1v18.586l-14.707 14.707c-.188.187-.293.442-.293.707v4c0 .552.447 1 1 1zm-4-43c0-.352-.072-.686-.184-1h10.369c-.113.314-.185.648-.185 1 0 .551-.448 1-1 1h-8c-.552 0-1-.449-1-1zm22 51c0 2.206-1.794 4-4 4h-26c-2.206 0-4-1.794-4-4v-48c0-2.206 1.794-4 4-4h4 1c.552 0 1 .449 1 1 0 .352.072.686.184 1h-5.184c-1.654 0-3 1.346-3 3v46c0 1.654 1.346 3 3 3h24c1.654 0 3-1.346 3-3v-18.586l2-2zm7.879-37.464c.341-.341.811-.536 1.293-.536 1.008 0 1.828.82 1.828 1.829 0 .488-.19.948-.535 1.293l-24.879 24.878h-2.586v-2.586z" data-original="#000000" class="active-path" data-old_color="#000000" fill="#a2cfb8"/><path d="m27 39v-2h-10c-.553 0-1 .448-1 1v13c0 .552.447 1 1 1h20c.553 0 1-.448 1-1v-5h-2v4h-18v-11z" data-original="#000000" class="active-path" data-old_color="#000000" fill="#a2cfb8"/><path d="m36 27h2v-2h-1v-2c0-5.177-3.954-9.446-9-9.949v-2.051h-2v2.051c-5.046.503-9 4.773-9 9.949v2h-1v2h2zm-17-4c0-4.411 3.589-8 8-8s8 3.589 8 8v2h-16z" data-original="#000000" class="active-path" data-old_color="#000000" fill="#a2cfb8"/><path d="m16 29h19v2h-19z" data-original="#000000" class="active-path" data-old_color="#000000" fill="#a2cfb8"/></g> </svg>
